<svg width="49" height="49" viewBox="0 0 49 49" fill="none" xmlns="http://www.w3.org/2000/svg">
<path d="M20.4153 21.5135C20.4153 19.1048 22.3674 17.1517 24.7762 17.1517C27.1849 17.1517 29.1381 19.1048 29.1381 21.5135C29.1381 23.9221 27.1849 25.8752 24.7762 25.8752C22.3674 25.8752 20.4153 23.9221 20.4153 21.5135ZM18.0573 21.5135C18.0573 25.2241 21.0653 28.2321 24.7762 28.2321C28.487 28.2321 31.4951 25.2241 31.4951 21.5135C31.4951 17.8028 28.487 14.7948 24.7762 14.7948C21.0653 14.7948 18.0573 17.8028 18.0573 21.5135ZM30.1909 14.5284C30.1907 14.839 30.2827 15.1426 30.4551 15.4009C30.6276 15.6591 30.8727 15.8605 31.1596 15.9794C31.4464 16.0984 31.7621 16.1296 32.0668 16.0691C32.3714 16.0087 32.6512 15.8593 32.8709 15.6398C33.0906 15.4203 33.2402 15.1406 33.3009 14.836C33.3616 14.5315 33.3307 14.2157 33.2119 13.9288C33.0932 13.6419 32.8921 13.3966 32.6339 13.2239C32.3758 13.0513 32.0722 12.9591 31.7617 12.959H31.761C31.3448 12.9592 30.9456 13.1246 30.6512 13.4188C30.3568 13.7131 30.1912 14.1122 30.1909 14.5284ZM19.4899 32.1637C18.2142 32.1056 17.5208 31.8931 17.06 31.7136C16.4491 31.4758 16.0133 31.1926 15.555 30.7349C15.0967 30.2773 14.813 29.8418 14.5762 29.231C14.3966 28.7704 14.1841 28.0768 14.1261 26.8012C14.0627 25.422 14.05 25.0077 14.05 21.5136C14.05 18.0194 14.0637 17.6063 14.1261 16.2259C14.1842 14.9503 14.3983 14.2581 14.5762 13.7961C14.8141 13.1853 15.0973 12.7494 15.555 12.2911C16.0126 11.8329 16.4481 11.5492 17.06 11.3124C17.5206 11.1328 18.2142 10.9203 19.4899 10.8623C20.8692 10.7989 21.2835 10.7862 24.7762 10.7862C28.2689 10.7862 28.6836 10.8 30.064 10.8623C31.3397 10.9204 32.0319 11.1345 32.4939 11.3124C33.1048 11.5492 33.5407 11.8335 33.999 12.2911C34.4572 12.7488 34.7399 13.1853 34.9777 13.7961C35.1573 14.2567 35.3698 14.9503 35.4278 16.2259C35.4913 17.6063 35.5039 18.0194 35.5039 21.5136C35.5039 25.0077 35.4913 25.4208 35.4278 26.8012C35.3697 28.0768 35.1562 28.7702 34.9777 29.231C34.7399 29.8418 34.4566 30.2777 33.999 30.7349C33.5413 31.1921 33.1048 31.4758 32.4939 31.7136C32.0333 31.8932 31.3397 32.1057 30.064 32.1637C28.6848 32.2271 28.2704 32.2398 24.7762 32.2398C21.2819 32.2398 20.8688 32.2271 19.4899 32.1637ZM19.3816 8.50844C17.9886 8.57187 17.0368 8.79273 16.2055 9.11617C15.3447 9.45019 14.6159 9.8983 13.8877 10.6254C13.1594 11.3524 12.7124 12.0823 12.3784 12.9432C12.055 13.7749 11.8341 14.7262 11.7706 16.1191C11.7062 17.5142 11.6914 17.9602 11.6914 21.5135C11.6914 25.0667 11.7062 25.5127 11.7706 26.9078C11.8341 28.3008 12.055 29.252 12.3784 30.0837C12.7124 30.9441 13.1595 31.6748 13.8877 32.4015C14.6158 33.1283 15.3447 33.5758 16.2055 33.9107C17.0384 34.2342 17.9886 34.455 19.3816 34.5185C20.7775 34.5819 21.2228 34.5977 24.7762 34.5977C28.3296 34.5977 28.7756 34.5829 30.1708 34.5185C31.5638 34.455 32.515 34.2342 33.3468 33.9107C34.2072 33.5758 34.9365 33.1286 35.6647 32.4015C36.3929 31.6745 36.839 30.9441 37.174 30.0837C37.4974 29.252 37.7193 28.3007 37.7817 26.9078C37.8451 25.5117 37.8599 25.0667 37.8599 21.5135C37.8599 17.9602 37.8451 17.5142 37.7817 16.1191C37.7183 14.7261 37.4974 13.7744 37.174 12.9432C36.839 12.0828 36.3918 11.3536 35.6647 10.6254C34.9376 9.89715 34.2072 9.45019 33.3479 9.11617C32.515 8.79273 31.5637 8.57082 30.1718 8.50844C28.7767 8.445 28.3306 8.4292 24.7772 8.4292C21.2238 8.4292 20.7775 8.44396 19.3816 8.50844Z" fill="white"/>
</svg>
