<svg width="49" height="49" viewBox="0 0 49 49" fill="none" xmlns="http://www.w3.org/2000/svg">
<path d="M36.8491 37.2527C35.2639 37.215 33.7165 37.215 32.1312 37.2527C31.7916 37.2527 31.7161 37.1773 31.7161 36.8376C31.7161 34.0446 31.7161 31.2139 31.7161 28.4209C31.7161 27.7792 31.6783 27.1376 31.4896 26.5337C30.9235 24.5711 28.6589 23.854 27.0359 25.175C26.1678 25.8544 25.8282 26.7979 25.8282 27.9302C25.8282 30.5722 25.8282 33.2142 25.8282 35.8563C25.8282 36.1959 25.7904 36.5356 25.8282 36.9131C25.8659 37.215 25.7149 37.2905 25.4507 37.2527C23.8278 37.2527 22.2426 37.2527 20.6196 37.2527C20.3177 37.2527 20.2422 37.1773 20.2422 36.8753C20.2799 34.4975 20.2799 32.1197 20.2799 29.7041C20.2799 26.7602 20.2799 23.8162 20.2422 20.91C20.2422 20.5703 20.3177 20.4948 20.6196 20.4948C22.2426 20.4948 23.8278 20.4948 25.4507 20.4948C25.7527 20.4948 25.8282 20.5703 25.8282 20.8723C25.8282 21.4762 25.8282 22.08 25.8282 22.7972C25.9414 22.6839 25.9791 22.6462 26.0169 22.6084C27.4889 20.4571 29.5647 19.8532 32.018 20.2306C34.8487 20.6836 36.6604 22.6462 37.1133 25.6656C37.2266 26.3828 37.2643 27.0999 37.2643 27.817C37.2643 30.8364 37.2643 33.8181 37.2643 36.8376C37.2643 37.1395 37.1888 37.2527 36.8491 37.2527Z" fill="white"/>
<path d="M17.2201 28.8736C17.2201 31.5156 17.2201 34.1576 17.2201 36.7996C17.2201 37.1393 17.1446 37.2525 16.8049 37.2525C15.2197 37.2148 13.6345 37.2525 12.0493 37.2525C11.7474 37.2525 11.6719 37.177 11.6719 36.8751C11.6719 31.5533 11.6719 26.1938 11.6719 20.8721C11.6719 20.6079 11.7474 20.4946 12.0493 20.4946C13.6723 20.4946 15.2952 20.4946 16.9182 20.4946C17.2578 20.4946 17.2956 20.6079 17.2956 20.9098C17.2201 23.5518 17.2201 26.1938 17.2201 28.8736Z" fill="white"/>
<path d="M17.4866 16.1162C17.1091 17.6259 15.5617 18.494 13.7877 18.192C11.9006 17.8901 10.8438 16.0407 11.5232 14.229C11.9761 13.0967 13.0706 12.4174 14.4671 12.4551C16.5807 12.4174 17.9772 14.1158 17.4866 16.1162Z" fill="white"/>
</svg>
