<svg width="123" height="42" viewBox="0 0 123 42" fill="none" xmlns="http://www.w3.org/2000/svg">
<g clip-path="url(#clip0_142_160)">
<path d="M111.039 0.994658C115.647 0.994658 119.012 1.91827 121.426 2.98397L119.415 10.1952C117.769 9.41373 114.879 8.3125 110.893 8.3125C106.906 8.3125 104.968 10.0532 104.968 12.1135C104.968 14.6357 107.235 15.7724 112.502 17.6907C119.671 20.2839 123.072 23.9073 122.999 29.4845C122.999 36.1274 117.732 41.7401 106.577 41.7401C101.932 41.7401 97.3604 40.5678 95.0562 39.3245L96.9215 31.9356C99.4085 33.1434 103.212 34.3868 107.126 34.3868C111.368 34.3868 113.599 32.7171 113.599 30.1239C113.599 27.6373 111.697 26.2519 106.796 24.5467C100.945 22.5574 96.8849 19.609 95.8608 15.133V26.6071C95.8608 37.8325 90.3016 41.7756 81.3775 41.7756C79.2562 41.7756 76.5131 41.4204 74.6844 40.852L75.7085 33.6408C76.9886 34.067 78.5978 34.3512 80.4265 34.3512C84.3034 34.3512 86.7173 32.6461 86.7173 26.5005V1.63408H95.8974V10.5505C97.1043 5.00881 102.59 0.994658 111.039 0.994658ZM12.4352 1.34989C18.1042 1.34989 22.1639 2.4156 24.8704 4.51149C27.1746 6.28766 28.8204 9.12954 29.1496 12.4688H45.9006L48.7899 17.2289C49.6311 18.6854 50.4357 20.1418 51.2038 21.4917H51.3135C52.1182 19.9642 52.8496 18.5077 53.6177 17.0868L56.2145 12.4688H73.6603V41.1717H55.9219L52.9594 36.0208C52.1182 34.5999 51.3867 33.1434 50.6552 31.687H50.4723C49.7408 33.2145 48.9728 34.5999 48.2413 36.0208L45.4617 41.1717H28.1255V19.1827C27.5038 20.6747 26.626 21.989 25.4556 23.0548C22.3468 25.9322 17.7019 27.211 12.2523 27.211C11.0454 27.211 9.94817 27.14 9.10696 27.0334V41.1362H0V2.16693C2.85278 1.70513 6.83937 1.34989 12.4352 1.34989ZM64.4802 14.8843L56.4705 26.1453L64.4802 38.4009V14.8843ZM37.3056 14.8843V38.3654L45.4251 26.5716L37.3056 14.8843ZM12.9107 8.09936C11.0454 8.09936 9.7653 8.27698 9.10696 8.45459V20.0708C9.87502 20.2484 10.8625 20.3194 12.1792 20.3194C17.0801 20.3194 20.0792 17.9394 20.0792 13.8897C20.0792 10.2663 17.4824 8.09936 12.9107 8.09936ZM32.7339 0C35.6964 0 37.5616 1.91827 37.5982 4.51149C37.5982 6.96261 35.6964 8.95192 32.6607 8.95192C29.7714 8.95192 27.8329 6.96261 27.9061 4.51149C27.8329 1.91827 29.7714 0 32.7339 0ZM69.0886 0C72.0511 0 73.9163 1.91827 73.9529 4.51149C73.9529 6.96261 72.0511 8.95192 69.0154 8.95192C66.1261 8.95192 64.1876 6.96261 64.2608 4.51149C64.1876 1.91827 66.1261 0 69.0886 0Z" fill="white"/>
</g>
<defs>
<clipPath id="clip0_142_160">
<rect width="123" height="42" fill="white"/>
</clipPath>
</defs>
</svg>
