<svg width="33" height="37" viewBox="0 0 33 37" fill="none" xmlns="http://www.w3.org/2000/svg">
<path d="M32.9975 9.5366C32.9975 9.32712 32.8866 9.13701 32.7082 9.0349L16.7715 0.0712929C16.6018 -0.0237643 16.3974 -0.0237643 16.2276 0.0712929L0.290988 9.0349C0.112585 9.137 0.0017325 9.32711 0.0017325 9.5366V27.4652L0 27.4634C0 27.6729 0.112587 27.8648 0.290989 27.9651L16.2263 36.9287H16.2281C16.3978 37.0238 16.6022 37.0238 16.7719 36.9287L32.7073 27.9651H32.709C32.8874 27.8648 33 27.6729 33 27.4634V9.53484L32.9975 9.5366ZM16.4994 1.22641L31.2721 9.5366L24.4667 13.3635L9.69395 5.05466L16.4994 1.22641ZM8.53177 5.70812L23.3045 14.0183L16.499 17.847L1.72629 9.53678L8.53177 5.70812ZM31.8734 27.1273L16.4994 35.7741L1.12546 27.1273V10.5065L16.2276 19.0001C16.3974 19.0969 16.6018 19.0969 16.7715 19.0001L23.9042 14.9884V22.0787C23.9042 22.2301 23.9631 22.3762 24.0688 22.4836C24.1744 22.5927 24.3182 22.6526 24.4672 22.6526C24.6178 22.6526 24.7599 22.5927 24.8655 22.4836C24.9712 22.3762 25.0301 22.2301 25.0301 22.0787V14.3543L31.8719 10.5046L31.8734 27.1273Z" fill="white"/>
</svg>
