<svg width="50" height="50" viewBox="0 0 50 50" fill="none" xmlns="http://www.w3.org/2000/svg">
<path d="M42.4043 11.8708C42.7335 11.8708 43 12.1181 43 12.4514C43 19.2802 43 26.1089 43 32.9377C43 33.2582 42.7399 33.5183 42.4194 33.5183H9.5114C8.83338 33.5183 8.21204 33.2609 7.75895 32.8467C7.29032 32.4215 7 31.828 7 31.1733C7 24.068 7 16.9622 7 9.85679C7 9.27203 7.23957 8.74031 7.62454 8.35489C8.01224 7.96764 8.54397 7.72807 9.12873 7.72807H19.3001C19.4427 5.66792 20.3384 3.81214 21.7136 2.43597C23.2768 0.872796 25.3772 0 27.5882 0C29.882 0 31.96 0.930404 33.4632 2.43368C35.0319 4.11435 35.8969 5.9779 35.8969 8.30826C35.8969 9.01006 35.8087 9.69449 35.6432 10.3487C35.5097 10.8786 35.325 11.3884 35.0959 11.8708H42.4043ZM27.0094 2.53198C27.0094 2.21285 27.2686 1.95362 27.5878 1.95362C27.9069 1.95362 28.1661 2.21285 28.1661 2.53198V3.5936C28.3495 3.62103 28.5301 3.66218 28.7052 3.71567C29.7032 4.022 30.4841 4.74346 30.4841 5.886C30.4841 6.2065 30.224 6.46665 29.9035 6.46665C29.583 6.46665 29.3228 6.2065 29.3228 5.886C29.3228 5.34468 28.9022 4.98715 28.365 4.8221C28.3005 4.80244 28.2342 4.78506 28.1661 4.77089L28.1657 7.95804C28.7276 8.26071 29.2355 8.59858 29.6269 8.97394C30.1563 9.48235 30.4841 10.0634 30.4841 10.731C30.4841 10.9838 30.4348 11.2289 30.3442 11.4593C30.2875 11.6033 30.2144 11.7414 30.1275 11.8708H33.7879C34.112 11.2814 34.353 10.7232 34.5185 10.0671C34.6597 9.50749 34.7356 8.9177 34.7356 8.30826C34.7356 6.34732 33.947 4.57109 32.6714 3.28179C31.1873 1.91339 29.6452 1.16129 27.5882 1.16129C25.6136 1.16129 23.8259 1.96093 22.5348 3.25253C20.8422 4.94417 20.1262 7.34356 20.5688 9.66523C20.711 10.3428 20.9149 10.9692 21.2331 11.5836L25.0485 11.8708L25.0069 11.8068C24.8377 11.5352 24.9214 11.1772 25.1929 11.008C25.4645 10.8389 25.8225 10.9225 25.9917 11.1941C26.0918 11.3546 26.2395 11.4981 26.421 11.6143C26.5906 11.7226 26.7899 11.8077 27.0089 11.8625V8.65984C26.447 8.35626 25.9396 8.01885 25.5491 7.64349C25.0201 7.13462 24.6918 6.55306 24.6918 5.886C24.6918 4.74346 25.4727 4.022 26.4708 3.71567C26.6455 3.66218 26.8261 3.62103 27.0094 3.5936V2.53198ZM28.1657 9.29947V11.8625C28.3426 11.8182 28.5081 11.7528 28.6562 11.6714C28.8131 11.585 28.9484 11.4808 29.0554 11.3642L29.0759 11.3395C29.1587 11.2444 29.2232 11.142 29.2643 11.0377C29.3018 10.9417 29.3228 10.8379 29.3228 10.731C29.3228 10.4146 29.1317 10.1046 28.824 9.80879C28.6393 9.63139 28.4153 9.46132 28.1657 9.29947ZM27.0094 7.31796V4.77089C26.9417 4.78552 26.875 4.80244 26.811 4.8221C26.2738 4.98715 25.8531 5.34468 25.8531 5.886C25.8531 6.20239 26.0442 6.51283 26.3519 6.80864C26.5367 6.98603 26.7598 7.15565 27.0094 7.31796ZM19.3005 8.88936H9.12873C8.86218 8.88936 8.61986 8.99817 8.44475 9.17282C8.2701 9.34793 8.16129 9.59025 8.16129 9.85679C8.16129 10.3775 8.03419 11.1754 8.44475 11.5873C8.61986 11.762 8.86218 11.8708 9.12873 11.8708H20.0828C20.0142 11.7272 19.9498 11.5836 19.8922 11.441C19.6933 10.9532 19.5387 10.4384 19.4345 9.90709C19.3778 9.55916 19.3252 9.24323 19.3005 8.88936ZM9.12873 13.0321C8.7808 13.0321 8.45207 12.9475 8.16129 12.7975V31.1733C8.16129 31.4883 8.30577 31.7787 8.53802 31.9903C8.78354 32.2176 9.12918 32.357 9.5114 32.357H41.8387V27.1394H34.9958C33.7769 27.1394 32.6663 26.6402 31.8612 25.836C31.0255 25.0002 30.5527 23.8801 30.5527 22.6964C30.5527 21.4738 31.052 20.3633 31.8562 19.5581C32.6901 18.7247 33.8153 18.2496 34.9958 18.2496H41.8387V13.0321C30.9354 13.0321 20.0321 13.0321 9.12873 13.0321ZM41.8387 25.9782V19.4109H34.9958C34.0928 19.4109 33.2717 19.7799 32.6787 20.3733C32.083 20.9686 31.714 21.7897 31.714 22.6927C31.714 23.5993 32.083 24.4205 32.6764 25.0135C33.2717 25.6092 34.0928 25.9782 34.9958 25.9782H41.8387Z" fill="white"/>
</svg>
