<svg width="108" height="40" viewBox="0 0 108 40" fill="none" xmlns="http://www.w3.org/2000/svg">
<path d="M72.6953 39.2679V0H89.3828C93.5792 0 96.6239 0.357143 98.5167 1.07143C100.427 1.76786 101.954 3.01786 103.097 4.82143C104.24 6.625 104.811 8.6875 104.811 11.0089C104.811 13.9554 103.945 16.3929 102.213 18.3214C100.481 20.2321 97.8917 21.4375 94.4453 21.9375C96.1596 22.9375 97.5703 24.0357 98.6775 25.2321C99.8025 26.4286 101.311 28.5536 103.204 31.6071L107.999 39.2679H98.5167L92.7846 30.7232C90.7489 27.6696 89.356 25.75 88.606 24.9643C87.856 24.1607 87.0614 23.6161 86.2221 23.3304C85.3828 23.0268 84.0525 22.875 82.231 22.875H80.6239V39.2679H72.6953ZM80.6239 16.6071H86.49C90.2935 16.6071 92.6685 16.4464 93.615 16.125C94.5614 15.8036 95.3025 15.25 95.8382 14.4643C96.3739 13.6786 96.6417 12.6964 96.6417 11.5179C96.6417 10.1964 96.2846 9.13393 95.5703 8.33036C94.8739 7.50893 93.8828 6.99107 92.5971 6.77679C91.9542 6.6875 90.0257 6.64286 86.8114 6.64286H80.6239V16.6071Z" fill="black"/>
<path d="M52.7687 39.2678L41.9473 10.8214H47.0366L53.1437 27.8571C53.8044 29.6964 54.4116 31.6071 54.9651 33.5893C55.3937 32.0893 55.9919 30.2857 56.7598 28.1786L63.0812 10.8214H68.0366L57.2687 39.2678H52.7687Z" fill="black"/>
<path d="M32.6797 5.54464V0H37.5011V5.54464H32.6797ZM32.6797 39.2679V10.8214H37.5011V39.2679H32.6797Z" fill="black"/>
<path d="M0 39.2679V0H26.4911V4.63393H5.19643V16.7946H23.625V21.4286H5.19643V39.2679H0Z" fill="black"/>
</svg>
