<svg width="271" height="72" viewBox="0 0 271 72" fill="none" xmlns="http://www.w3.org/2000/svg">
<g clip-path="url(#clip0_142_158)">
<path d="M180.309 0V52.2799C186.85 52.5799 193.376 52.9425 199.882 53.3704V64.4544C189.597 63.7786 179.268 63.2627 168.896 62.9109V0H180.309ZM271 0.0061936L256.139 33.9684L270.996 71.7619L270.98 71.7691C266.652 71.1605 262.318 70.5859 257.972 70.0351L249.629 48.8231L241.206 68.066C237.214 67.6315 233.217 67.2205 229.211 66.8353L243.699 33.7413L230.43 0.0061936H242.776L250.205 18.8847L258.465 0.0061936H271ZM129.727 62.3615L129.727 0.00599319H161.585V11.1896H141.14V25.684H156.609V36.768H141.14V62.359L129.727 62.3615ZM87.1118 11.1905L87.1114 0.00541021H122.411V11.1897H110.467V62.6649C106.658 62.7632 102.852 62.8797 99.055 63.0209V11.1905H87.1118ZM48.0963 66.2432V0.0072865H79.7958V11.1909H59.5073V26.34C64.1683 26.2812 70.7956 26.2145 74.9187 26.2243V37.3092C69.7576 37.246 63.9318 37.379 59.5073 37.4225V54.2033C66.2504 53.6806 73.0138 53.2232 79.7958 52.837V63.922C69.1812 64.5247 58.6144 65.3012 48.0963 66.2432ZM25.7085 40.6195L25.7078 0.00546501H37.1206V67.2881C32.9485 67.7112 28.7844 68.1613 24.6275 68.6365L11.4121 31.2128V70.2395C7.60057 70.7288 3.79677 71.239 0 71.7717V0.0061936H10.8459L25.7085 40.6195ZM209.297 65.123V65.1231V0.00626615H220.71V66.0521C216.911 65.7187 213.108 65.4104 209.297 65.123Z" fill="white"/>
</g>
<defs>
<clipPath id="clip0_142_158">
<rect width="271" height="72" fill="white"/>
</clipPath>
</defs>
</svg>
