<svg width="49" height="49" viewBox="0 0 49 49" fill="none" xmlns="http://www.w3.org/2000/svg">
<path d="M13.1818 22.9938C20.2063 19.8689 24.8904 17.8089 27.2341 16.8136C33.9259 13.9717 35.3164 13.4781 36.2227 13.4616C36.422 13.4582 36.8677 13.5086 37.1564 13.7478C37.4002 13.9498 37.4673 14.2226 37.4994 14.4141C37.5315 14.6056 37.5715 15.0418 37.5397 15.3826C37.1771 19.2729 35.608 28.7135 34.8097 33.0707C34.4719 34.9144 33.8068 35.5325 33.1629 35.593C31.7636 35.7245 30.701 34.6488 29.3457 33.7417C27.225 32.3223 26.0269 31.4387 23.9683 30.0536C21.5892 28.4529 23.1315 27.5731 24.4873 26.1353C24.8421 25.7591 31.0075 20.0333 31.1268 19.5139C31.1418 19.4489 31.1556 19.2068 31.0147 19.0789C30.8738 18.951 30.6659 18.9948 30.5158 19.0295C30.3031 19.0788 26.9151 21.3652 20.3519 25.8887C19.3902 26.5629 18.5192 26.8915 17.7387 26.8742C16.8784 26.8553 15.2234 26.3776 13.9931 25.9692C12.4841 25.4684 11.2847 25.2036 11.3892 24.353C11.4435 23.91 12.0411 23.4569 13.1818 22.9938Z" fill="white"/>
</svg>
