<svg width="49" height="49" viewBox="0 0 49 49" fill="none" xmlns="http://www.w3.org/2000/svg">
<path d="M38.6311 16.7703C38.2829 15.477 37.2632 14.4573 35.9698 14.1091C33.607 13.4624 24.1557 13.4624 24.1557 13.4624C24.1557 13.4624 14.7045 13.4624 12.3417 14.0842C11.0732 14.4324 10.0286 15.477 9.68039 16.7703C9.05859 19.1332 9.05859 24.0329 9.05859 24.0329C9.05859 24.0329 9.05859 28.9575 9.68039 31.2954C10.0286 32.5888 11.0483 33.6085 12.3417 33.9567C14.7294 34.6034 24.1557 34.6034 24.1557 34.6034C24.1557 34.6034 33.607 34.6034 35.9698 33.9816C37.2632 33.6334 38.2829 32.6136 38.6311 31.3203C39.2529 28.9575 39.2529 24.0578 39.2529 24.0578C39.2529 24.0578 39.2778 19.1332 38.6311 16.7703Z" fill="white"/>
<path d="M21.1465 28.5597L29.006 24.033L21.1465 19.5063V28.5597Z" fill="white"/>
<path d="M29.25 23.8059L22.5 27.27V20.3418L29.25 23.8059Z" fill="black"/>
</svg>
