<svg width="50" height="50" viewBox="0 0 50 50" fill="none" xmlns="http://www.w3.org/2000/svg">
<path d="M44.3828 30.5508V21.0484L44.6628 20.9259C45.3223 20.6385 45.7515 19.9198 45.7515 19.0893C45.7515 18.2589 45.3223 17.5402 44.6628 17.2527L26.1202 9.26751C25.2936 8.91083 24.4579 8.91083 23.6313 9.26751L5.08862 17.2581C4.42912 17.5455 4 18.2642 4 19.0947C4 19.9251 4.42912 20.6438 5.08862 20.9313L10.6763 23.3375V31.1204C10.6763 32.4513 11.1641 33.6384 12.0495 34.4689C16.0064 38.1581 20.4422 40 24.8735 40C29.3047 40 33.745 38.1581 37.6975 34.4689C38.5828 33.6438 39.0707 32.4513 39.0707 31.1204V23.3375L43.0231 21.634V30.5508C42.0836 30.8968 41.397 31.9136 41.397 33.1327V36.1884C41.397 37.2637 42.1423 38.1421 43.0548 38.1421H44.3421C45.2546 38.1421 45.9999 37.2637 45.9999 36.1884V33.1327C46.0089 31.9136 45.3223 30.8915 44.3828 30.5508ZM5.35513 19.0947C5.35513 18.935 5.4274 18.8125 5.55388 18.7593L24.0965 10.7634C24.625 10.5345 25.1219 10.5345 25.6504 10.7634L44.1931 18.754C44.3196 18.8072 44.3918 18.9296 44.3918 19.0893C44.3918 19.249 44.3196 19.3715 44.1931 19.4247L43.6013 19.6802L24.9141 18.2908C24.5392 18.2642 24.2185 18.5996 24.1959 19.0361C24.1733 19.478 24.4579 19.8559 24.8283 19.8825L40.4349 21.0431L25.6549 27.4206C25.1264 27.6495 24.6296 27.6495 24.1011 27.4206L5.55388 19.43C5.4274 19.3715 5.35513 19.249 5.35513 19.0947ZM37.7201 31.1204C37.7201 31.9775 37.431 32.6855 36.8618 33.2126C29.4719 40.1065 20.2841 40.1065 12.8942 33.2126C12.325 32.6802 12.0359 31.9775 12.0359 31.1204V23.9177L23.6358 28.9165C24.0468 29.0922 24.4624 29.1827 24.878 29.1827C25.2936 29.1827 25.7091 29.0922 26.1202 28.9165L37.7201 23.9177V31.1204ZM44.6538 36.1831C44.6538 36.38 44.5183 36.5397 44.3512 36.5397H43.0638C42.8967 36.5397 42.7612 36.38 42.7612 36.1831V33.1274C42.7612 32.5099 43.1858 32.0094 43.7097 32.0094C44.2337 32.0094 44.6583 32.5099 44.6583 33.1274V36.1831H44.6538Z" fill="white"/>
</svg>
