<svg width="50" height="50" viewBox="0 0 50 50" fill="none" xmlns="http://www.w3.org/2000/svg">
<path d="M46 20.9389V29.0611C45.9988 29.7678 45.7244 30.4453 45.2369 30.945C44.7493 31.4448 44.0884 31.726 43.3989 31.7272H34.0267V41.3339C34.0255 42.0406 33.7511 42.7181 33.2636 43.2178C32.776 43.7175 32.1151 43.9988 31.4256 44H23.4998C22.8103 43.9988 22.1494 43.7175 21.6619 43.2178C21.1743 42.7181 20.8999 42.0406 20.8987 41.3339V31.7286H11.5247C10.8352 31.7274 10.1743 31.4461 9.68678 30.9464C9.19924 30.4466 8.92482 29.7692 8.92366 29.0625V28.7009C8.92804 28.5297 8.99747 28.367 9.11717 28.2475C9.23686 28.128 9.39735 28.0611 9.56445 28.0611C9.73154 28.0611 9.89203 28.128 10.0117 28.2475C10.1314 28.367 10.2009 28.5297 10.2052 28.7009V29.0625C10.2052 29.422 10.3446 29.7668 10.5926 30.0211C10.8406 30.2753 11.177 30.4181 11.5278 30.4181H21.538C21.7079 30.4181 21.8709 30.4873 21.9911 30.6104C22.1113 30.7335 22.1789 30.9005 22.179 31.0747V41.3339C22.179 41.6934 22.3183 42.0382 22.5664 42.2925C22.8144 42.5467 23.1508 42.6895 23.5016 42.6895H31.4243C31.7751 42.6895 32.1115 42.5467 32.3595 42.2925C32.6075 42.0382 32.7469 41.6934 32.7469 41.3339V31.072C32.7469 30.8979 32.8143 30.7309 32.9345 30.6077C33.0546 30.4846 33.2175 30.4154 33.3874 30.4154H43.3989C43.7497 30.4154 44.0861 30.2726 44.3341 30.0183C44.5822 29.7641 44.7215 29.4193 44.7215 29.0597V20.9389C44.7215 20.5794 44.5822 20.2345 44.3341 19.9803C44.0861 19.7261 43.7497 19.5832 43.3989 19.5832H33.3861C33.2162 19.5832 33.0533 19.5141 32.9332 19.3909C32.813 19.2678 32.7455 19.1008 32.7455 18.9267V8.66613C32.7455 8.30658 32.6062 7.96177 32.3582 7.70753C32.1101 7.4533 31.7737 7.31047 31.423 7.31047H23.4998C23.149 7.31047 22.8126 7.4533 22.5646 7.70753C22.3166 7.96177 22.1772 8.30658 22.1772 8.66613V18.928C22.1771 19.1022 22.1095 19.2692 21.9893 19.3923C21.8691 19.5154 21.7062 19.5846 21.5362 19.5846H11.5247C11.174 19.5846 10.8376 19.7274 10.5895 19.9817C10.3415 20.2359 10.2022 20.5807 10.2022 20.9403V24.3529C10.1978 24.5241 10.1283 24.6868 10.0086 24.8063C9.88895 24.9258 9.72846 24.9927 9.56136 24.9927C9.39426 24.9927 9.23377 24.9258 9.11408 24.8063C8.99439 24.6868 8.92495 24.5241 8.92057 24.3529V20.9389C8.92174 20.2322 9.19615 19.5547 9.68369 19.055C10.1712 18.5552 10.8322 18.274 11.5216 18.2728H20.8974V8.66613C20.8986 7.95939 21.173 7.28195 21.6605 6.78221C22.1481 6.28247 22.809 6.00119 23.4985 6H31.4243C32.1138 6.00119 32.7747 6.28247 33.2622 6.78221C33.7498 7.28195 34.0242 7.95939 34.0254 8.66613V18.2714H43.3989C44.0886 18.2726 44.7498 18.5541 45.2373 19.0541C45.7249 19.5541 45.9992 20.2319 46 20.9389ZM15.8011 26.8008L17.6655 22.6434L20.1956 29.3395C20.2415 29.4607 20.3215 29.5652 20.4255 29.6398C20.5294 29.7143 20.6526 29.7556 20.7795 29.7584C20.9063 29.7611 21.0311 29.7253 21.138 29.6553C21.245 29.5853 21.3292 29.4843 21.3802 29.3652L25.0199 20.8304L28.5468 35.6785C28.5793 35.8161 28.6544 35.9393 28.7607 36.0296C28.8671 36.1199 28.9991 36.1725 29.1371 36.1797C29.1481 36.1797 29.1591 36.1797 29.1702 36.1797C29.3025 36.1796 29.4315 36.1375 29.5395 36.0593C29.6476 35.981 29.7294 35.8705 29.7737 35.7427L33.3253 25.4971H40.066C40.2359 25.4971 40.3988 25.4279 40.519 25.3048C40.6391 25.1816 40.7066 25.0146 40.7066 24.8405C40.7066 24.6663 40.6391 24.4993 40.519 24.3762C40.3988 24.2531 40.2359 24.1839 40.066 24.1839H32.8729C32.7406 24.1839 32.6115 24.2259 32.5033 24.3041C32.3952 24.3824 32.3133 24.493 32.269 24.6209L29.2848 33.2311L25.8157 18.6284C25.7839 18.4949 25.7121 18.375 25.6104 18.2856C25.5087 18.1961 25.3822 18.1416 25.2487 18.1297C25.1152 18.1179 24.9814 18.1492 24.8661 18.2194C24.7509 18.2895 24.6601 18.395 24.6064 18.5209L20.8291 27.3778L18.314 20.7224C18.2684 20.6022 18.1893 20.4983 18.0865 20.4238C17.9838 20.3493 17.8619 20.3075 17.7361 20.3036C17.6103 20.2996 17.4861 20.3337 17.3791 20.4016C17.2721 20.4695 17.1869 20.5682 17.1342 20.6854L14.8087 25.8699H5.64057C5.55645 25.8699 5.47315 25.8869 5.39543 25.9199C5.31772 25.9529 5.2471 26.0012 5.18762 26.0622C5.12814 26.1232 5.08095 26.1955 5.04876 26.2752C5.01657 26.3549 5 26.4402 5 26.5265C5 26.6127 5.01657 26.6981 5.04876 26.7777C5.08095 26.8574 5.12814 26.9298 5.18762 26.9908C5.2471 27.0517 5.31772 27.1001 5.39543 27.1331C5.47315 27.1661 5.55645 27.1831 5.64057 27.1831H15.2191C15.3417 27.1831 15.4616 27.1471 15.5648 27.0793C15.6679 27.0116 15.7499 26.9149 15.8011 26.8008Z" fill="white"/>
</svg>
